<svg xmlns="http://www.w3.org/2000/svg" version="1.1" xmlns:xlink="http://www.w3.org/1999/xlink" xmlns:svgjs="http://svgjs.dev/svgjs" width="2500" height="600" preserveAspectRatio="none" viewBox="0 0 2500 600">
    <g mask="url(&quot;#SvgjsMask1021&quot;)" fill="none">
        <path d="M2583.333333333333 600L0 600 L0 278.97Q35.9 106.54, 208.33333333333331 142.44Q283.49 92.6, 333.3333333333333 167.76Q377.85 87.27, 458.3333333333333 131.79Q587.54 52.66, 666.6666666666666 181.87Q788.48 95.35, 875 217.17Q971.44 105.28, 1083.3333333333333 201.72Q1131.23 124.62, 1208.3333333333333 172.51Q1292.51 48.35, 1416.6666666666665 132.52Q1558.96 66.48, 1624.9999999999998 208.77Q1755.42 130.86, 1833.333333333333 261.28Q1947.72 167.33, 2041.6666666666663 281.72Q2073.87 188.93, 2166.666666666666 221.13Q2228.43 74.56, 2374.9999999999995 136.32Q2499.83 52.81, 2583.333333333333 177.64z" fill="#182f5d"></path>
        <path d="M2625 600L0 600 L0 273.76Q113.2 178.63, 208.33333333333331 291.83Q248.29 206.79, 333.3333333333333 246.75Q423.68 212.1, 458.3333333333333 302.45Q611.55 247.33, 666.6666666666666 400.55Q711.84 237.39, 875 282.56Q921.74 204.3, 1000 251.03Q1153.31 196.01, 1208.3333333333333 349.32Q1338.15 270.8, 1416.6666666666665 400.62Q1481.1 256.72, 1624.9999999999998 321.16Q1763.85 251.68, 1833.333333333333 390.53Q1845.59 277.79, 1958.333333333333 290.05Q2002.63 209.35, 2083.333333333333 253.65Q2171.06 216.38, 2208.333333333333 304.1Q2297.35 184.78, 2416.6666666666665 273.8Q2567.85 216.65, 2625 367.84z" fill="#25467d"></path>
        <path d="M2708.3333333333335 600L0 600 L0 473.12Q109.7 374.48, 208.33333333333331 484.18Q282.65 350.16, 416.66666666666663 424.48Q465.4 348.22, 541.6666666666666 396.95Q590.43 320.72, 666.6666666666666 369.48Q848.1 342.58, 875 524.01Q883.94 407.95, 1000 416.89Q1040.63 332.51, 1125 373.14Q1260.12 299.92, 1333.3333333333333 435.04Q1408.08 384.78, 1458.3333333333333 459.53Q1476.72 352.92, 1583.3333333333333 371.31Q1682.41 262.06, 1791.6666666666665 361.14Q1884.67 329.14, 1916.6666666666665 422.14Q1970.14 350.61, 2041.6666666666665 404.08Q2204.25 358.33, 2250 520.92Q2265.8 411.72, 2375 427.53Q2446.09 373.62, 2500 444.71Q2579.78 316.15, 2708.3333333333335 395.93z" fill="#356cb1"></path>
        <path d="M2541.6666666666665 600L0 600 L0 480.79Q104.32 376.77, 208.33333333333331 481.09Q349.47 413.89, 416.66666666666663 555.03Q528.48 458.51, 625 570.33Q671.83 492.16, 750 538.99Q797.32 461.31, 875 508.63Q943.43 452.06, 1000 520.48Q1089.88 402.02, 1208.3333333333333 491.9Q1347.3 422.54, 1416.6666666666665 561.51Q1508.07 444.58, 1624.9999999999998 535.99Q1705.7 491.69, 1749.9999999999998 572.39Q1806.9 504.29, 1874.9999999999998 561.19Q1923 484.2, 1999.9999999999998 532.2Q2130.12 453.99, 2208.333333333333 584.11Q2281.78 532.56, 2333.333333333333 606.01Q2404.41 468.75, 2541.6666666666665 539.83z" fill="rgb(209 213 219)"></path>
    </g>
    <defs>
        <mask id="SvgjsMask1021">
            <rect width="2500" height="600" fill="#ffffff"></rect>
        </mask>
    </defs>
</svg>