<svg xmlns="http://www.w3.org/2000/svg" version="1.1" xmlns:xlink="http://www.w3.org/1999/xlink" xmlns:svgjs="http://svgjs.dev/svgjs" width="1000" height="214" viewBox="0 0 1000 214"><g transform="matrix(1,0,0,1,-0.6060603228633568,0.5298991177943009)"><svg viewBox="0 0 396 85" data-background-color="#8abcd7" preserveAspectRatio="xMidYMid meet" height="214" width="1000" xmlns="http://www.w3.org/2000/svg" xmlns:xlink="http://www.w3.org/1999/xlink"><g id="tight-bounds" transform="matrix(1,0,0,1,0.2400001121461628,-0.21047394865661317)"><svg viewBox="0 0 395.52 85.42093668362091" height="85.42093668362091" width="395.52"><g><svg viewBox="0 0 521.4250321436766 112.61280000000001" height="85.42093668362091" width="395.52"><g><svg viewBox="0 0 521.4250321436766 112.61280000000001" height="112.61280000000001" width="521.4250321436766"><g id="textblocktransform"><svg viewBox="0 0 521.4250321436766 112.61280000000001" height="112.61280000000001" width="521.4250321436766" id="textblock"><g><svg viewBox="0 0 521.4250321436766 112.61280000000001" height="112.61280000000001" width="521.4250321436766"><g><svg><g></g><g></g></svg></g><g><svg><g></g><g><svg></svg></g></svg></g><g id="text-0"><svg viewBox="0 0 521.4250321436766 112.61280000000001" height="112.61280000000001" width="521.4250321436766"><g><svg xmlns="http://www.w3.org/2000/svg" xmlns:xlink="http://www.w3.org/1999/xlink" version="1.1" x="0" y="0" viewBox="5.412825107574463 5.195577621459961 79.76930236816406 79.77027130126953" enable-background="new 0 0 90 90" xml:space="preserve" height="112.61280000000001" width="112.6114321436766" class="icon-s-0" data-fill-palette-color="accent" id="s-0"><path d="M54.624 83.27c-10.792 1.801-22.246-1.411-30.727-8.272-8.062-6.522-13.088-16.744-12.728-27.17 0.349-10.096 5.499-20.182 14.078-25.707 8.769-5.647 20.783-5.62 29.498 0.129 8.154 5.379 12.661 15.857 9.907 25.391-1.424 4.931-4.572 9.475-9.052 12.082-4.663 2.714-10.561 3.268-15.615 1.341-4.544-1.733-8.418-5.448-9.851-10.154-1.47-4.826-0.243-10.416 3.327-14.027 3.452-3.492 8.998-4.743 13.484-2.567 4.259 2.065 6.884 7.148 5.307 11.755-0.85 2.483-2.859 4.611-5.423 5.317-2.69 0.741-5.774-0.221-7.439-2.493-1.629-2.222-1.495-5.503 0.597-7.389 1.054-0.95 2.599-1.429 3.984-1.015 0.41 0.122 2.233 0.566 2.058 1.209 0.087-0.652-1.341-0.82-1.755-0.934-1.29-0.356-2.733 0.004-3.719 0.904-1.739 1.586-1.995 4.459-0.597 6.34 1.417 1.906 4.102 2.721 6.348 1.971 2.287-0.765 3.875-3.013 4.245-5.344 0.746-4.703-3.812-8.759-8.323-8.569-4.774 0.201-8.548 4.373-9.111 8.971-1.056 8.621 8.8 14.488 16.466 12.536 8.546-2.177 12.86-12.372 10.766-20.465-2.34-9.045-11.891-14.664-20.877-14.543-9.785 0.131-18.28 7.23-21.955 16.011-4.038 9.649-2.194 21.17 4.201 29.364 6.485 8.309 16.93 13.113 27.352 13.664 5.766 0.305 11.749-0.537 17.004-3.006 4.955-2.328 8.907-6.258 11.976-10.734 6.303-9.194 8.662-20.938 6.135-31.824C79.845 17.355 61.052 3.689 41.936 5.329 23.164 6.939 7.154 22.991 5.551 41.756c-0.918 10.74 2.777 21.76 9.928 29.817 7.078 7.976 17.424 12.875 28.071 13.353 6.118 0.275 12.303-0.876 17.903-3.359-2.472 0.844-4.993 1.695-7.622 1.838 0.506-0.028 0.982-0.246 1.492-0.242-1.79-0.014-3.465 0.776-5.242 0.87 1.034-0.055 2.103-0.271 3.095-0.566 0.337-0.101 1.458-0.578 1.755-0.242-0.207-0.235-1.358 0.182-1.613 0.243-0.926 0.221-1.953 0.452-2.902 0.51 0.426-0.026 4.536-0.711 4.53-0.755 0.008 0.065-4.022 0.607-4.613 0.769 0.714-0.196 1.505-0.245 2.235-0.367 0.292-0.048 2.164-0.591 2.374-0.402C54.91 83.194 54.661 83.264 54.624 83.27 43.928 85.055 57.114 82.88 54.624 83.27z" fill="#1f2937" data-fill-palette-color="accent"></path></svg></g><g transform="matrix(1,0,0,1,125.90503214367659,33.24710028480483)"><svg width="395.52" viewBox="2.299999952316284 -34.349998474121094 298.4300231933594 34.79999923706055" height="46.11859943039035" data-palette-color="#1f2937"><path d="M28.05-6.85L28.05-1.65Q24.95 0.4 19.45 0.4L19.45 0.4Q11.9 0.4 7.1-4.3 2.3-9 2.3-16.9L2.3-16.9Q2.3-24.55 7.13-29.35 11.95-34.15 19.35-34.15L19.35-34.15Q24.75-34.15 28-32.3L28-32.3 28-27.25Q25.8-28.45 24.03-28.93 22.25-29.4 19.5-29.4L19.5-29.4Q14.45-29.4 11.08-25.98 7.7-22.55 7.7-16.9L7.7-16.9Q7.7-11.15 11.05-7.75 14.4-4.35 19.9-4.35L19.9-4.35Q24.75-4.35 28.05-6.85L28.05-6.85ZM52.85-4.55L52.85 0 33.9 0 33.9-33.7 39.05-33.7 39.05-4.55 52.85-4.55ZM83.34-29.63Q87.5-24.9 87.5-17 87.5-9.1 83.32-4.35 79.15 0.4 72.05 0.4L72.05 0.4Q65 0.4 60.77-4.35 56.55-9.1 56.55-17L56.55-17Q56.55-24.85 60.75-29.6 64.95-34.35 72-34.35L72-34.35Q79.2-34.35 83.34-29.63ZM64.62-26.18Q61.95-22.8 61.95-17 61.95-11.2 64.7-7.8 67.45-4.4 72.05-4.4L72.05-4.4Q76.8-4.4 79.45-7.75 82.09-11.1 82.09-17L82.09-17Q82.09-22.85 79.42-26.2 76.75-29.55 72-29.55L72-29.55Q67.3-29.55 64.62-26.18ZM118.84-33.7L118.84-12.9Q118.84-6.35 115.44-2.95 112.04 0.45 106.04 0.45L106.04 0.45Q100.14 0.45 96.74-2.88 93.34-6.2 93.34-12.5L93.34-12.5 93.34-33.7 98.49-33.7 98.49-12.55Q98.49-8.25 100.57-6.28 102.64-4.3 106.04-4.3L106.04-4.3Q113.69-4.3 113.69-12.8L113.69-12.8 113.69-33.7 118.84-33.7ZM136.64 0L136.64 0 126.04 0 126.04-33.7 136.54-33.7Q144.04-33.7 148.84-29.05 153.64-24.4 153.64-17.2L153.64-17.2Q153.64-9.7 149.12-4.85 144.59 0 136.64 0ZM136.44-29.3L136.44-29.3 131.29-29.3 131.29-4.35 136.59-4.35Q142.34-4.35 145.34-7.95 148.34-11.55 148.34-17.2L148.34-17.2Q148.34-22.4 145.09-25.85 141.84-29.3 136.44-29.3ZM179.64-33.7L179.64-29.4 170.79-29.4 170.79 0 165.64 0 165.64-29.4 156.84-29.4 156.84-33.7 179.64-33.7ZM189.89-33.7L189.89 0 184.79 0 184.79-33.7 189.89-33.7ZM202.73-14.1L202.73 0 197.58 0 197.58-33.7 203.68-33.7 211.98-19.6Q214.28-15.65 216.16-12.3 218.03-8.95 218.73-7.6L218.73-7.6 219.43-6.2Q219.13-10.75 219.13-19.55L219.13-19.55 219.13-33.7 224.28-33.7 224.28 0 218.18 0 209.83-14.05Q207.58-17.85 205.71-21.23 203.83-24.6 203.08-26.1L203.08-26.1 202.33-27.55Q202.73-22.55 202.73-14.1L202.73-14.1ZM256.98-33.7L256.98-12.9Q256.98-6.35 253.58-2.95 250.18 0.45 244.18 0.45L244.18 0.45Q238.28 0.45 234.88-2.88 231.48-6.2 231.48-12.5L231.48-12.5 231.48-33.7 236.63-33.7 236.63-12.55Q236.63-8.25 238.71-6.28 240.78-4.3 244.18-4.3L244.18-4.3Q251.83-4.3 251.83-12.8L251.83-12.8 251.83-33.7 256.98-33.7ZM269.83-13.2L268.83 0 263.73 0 266.33-33.7 272.43-33.7 276.93-21.4Q278.13-18.25 279.33-14.73 280.53-11.2 281.13-9.25L281.13-9.25 281.78-7.3Q284.08-14.1 286.83-21.4L286.83-21.4 291.53-33.7 297.63-33.7 300.73 0 295.63 0 294.43-13.2 293.38-26.7Q291.13-20.35 288.48-13.2L288.48-13.2 283.78-0.65 279.73-0.65 275.18-13.2 270.63-26.5Q270.63-24.3 269.83-13.2L269.83-13.2Z" opacity="1" transform="matrix(1,0,0,1,0,0)" fill="#1f2937" class="wordmark-text-0" data-fill-palette-color="primary"></path></svg></g></svg></g></svg></g></svg></g></svg></g></svg></g><defs></defs></svg><rect width="395.52" height="85.42093668362091" fill="none" stroke="none" visibility="hidden"></rect></g></svg></g></svg>