<svg xmlns="http://www.w3.org/2000/svg" version="1.1" xmlns:xlink="http://www.w3.org/1999/xlink" xmlns:svgjs="http://svgjs.dev/svgjs" viewBox="0 0 1422 800"><circle r="9" cx="439" cy="431" fill="hsl(204, 64%, 52%)" opacity="0.41"></circle><circle r="21.5" cx="180" cy="294" fill="hsl(204, 64%, 52%)" opacity="0.55"></circle><circle r="7" cx="517" cy="545" fill="hsl(204, 64%, 52%)" opacity="0.14"></circle><circle r="10.5" cx="1383" cy="432" fill="hsl(203, 64%, 52%)" opacity="0.38"></circle><circle r="7" cx="549" cy="764" fill="hsl(204, 64%, 52%)" opacity="0.50"></circle><circle r="9.5" cx="619" cy="778" fill="hsl(204, 64%, 52%)" opacity="0.56"></circle><circle r="12" cx="257" cy="596" fill="hsl(204, 64%, 52%)" opacity="0.83"></circle><circle r="7.5" cx="443" cy="656" fill="hsl(204, 64%, 52%)" opacity="0.75"></circle><circle r="11" cx="213" cy="225" fill="hsl(204, 64%, 52%)" opacity="0.44"></circle><circle r="10" cx="955" cy="310" fill="hsl(204, 64%, 52%)" opacity="0.25"></circle><circle r="10.5" cx="356" cy="621" fill="hsl(204, 64%, 52%)" opacity="0.74"></circle><circle r="8.5" cx="1299" cy="502" fill="hsl(203, 64%, 52%)" opacity="0.69"></circle><circle r="11" cx="837" cy="601" fill="hsl(204, 64%, 52%)" opacity="0.26"></circle><circle r="16" cx="800" cy="533" fill="hsl(204, 64%, 52%)" opacity="0.41"></circle><circle r="9.5" cx="176" cy="66" fill="hsl(204, 64%, 52%)" opacity="0.56"></circle><circle r="5.5" cx="581" cy="717" fill="hsl(204, 64%, 52%)" opacity="0.27"></circle><circle r="8.5" cx="1055" cy="355" fill="hsl(204, 64%, 52%)" opacity="0.83"></circle><circle r="12.5" cx="834" cy="325" fill="hsl(204, 64%, 52%)" opacity="0.60"></circle><circle r="14" cx="371" cy="92" fill="hsl(204, 64%, 52%)" opacity="0.82"></circle><circle r="11" cx="970" cy="244" fill="hsl(204, 64%, 52%)" opacity="0.80"></circle><circle r="9.5" cx="879" cy="198" fill="hsl(204, 64%, 52%)" opacity="0.76"></circle><circle r="14" cx="246" cy="352" fill="hsl(204, 64%, 52%)" opacity="0.49"></circle><circle r="11.5" cx="390" cy="722" fill="hsl(204, 64%, 52%)" opacity="0.52"></circle><circle r="16" cx="161" cy="572" fill="hsl(204, 64%, 52%)" opacity="0.33"></circle><circle r="12" cx="297" cy="671" fill="hsl(204, 64%, 52%)" opacity="0.67"></circle><circle r="11.5" cx="1031" cy="685" fill="hsl(204, 64%, 52%)" opacity="0.39"></circle><circle r="9.5" cx="1103" cy="63" fill="hsl(204, 64%, 52%)" opacity="0.99"></circle><circle r="6" cx="1255" cy="444" fill="hsl(203, 64%, 52%)" opacity="0.22"></circle><circle r="9" cx="494" cy="89" fill="hsl(204, 64%, 52%)" opacity="0.65"></circle><circle r="7" cx="1362" cy="585" fill="hsl(203, 64%, 52%)" opacity="0.46"></circle><circle r="11" cx="165" cy="782" fill="hsl(204, 64%, 52%)" opacity="0.81"></circle><circle r="12.5" cx="975" cy="556" fill="hsl(204, 64%, 52%)" opacity="0.77"></circle><circle r="9" cx="492" cy="638" fill="hsl(204, 64%, 52%)" opacity="0.54"></circle><circle r="9.5" cx="1172" cy="519" fill="hsl(204, 64%, 52%)" opacity="0.52"></circle><circle r="14" cx="1126" cy="25" fill="hsl(204, 64%, 52%)" opacity="0.61"></circle><circle r="6.5" cx="687" cy="13" fill="hsl(204, 64%, 52%)" opacity="0.10"></circle><circle r="8.5" cx="46" cy="350" fill="hsl(205, 64%, 52%)" opacity="0.96"></circle><circle r="10" cx="1302" cy="43" fill="hsl(204, 64%, 52%)" opacity="0.60"></circle><circle r="8.5" cx="86" cy="88" fill="hsl(204, 64%, 52%)" opacity="0.35"></circle><circle r="9" cx="17" cy="342" fill="hsl(205, 64%, 52%)" opacity="0.23"></circle><circle r="7.5" cx="355" cy="585" fill="hsl(204, 64%, 52%)" opacity="0.79"></circle><circle r="7" cx="1402" cy="678" fill="hsl(203, 64%, 52%)" opacity="0.28"></circle><circle r="7.5" cx="1174" cy="560" fill="hsl(204, 64%, 52%)" opacity="0.63"></circle><circle r="10.5" cx="888" cy="293" fill="hsl(204, 64%, 52%)" opacity="0.92"></circle><circle r="11" cx="439" cy="201" fill="hsl(204, 64%, 52%)" opacity="0.57"></circle><circle r="10.5" cx="1312" cy="254" fill="hsl(203, 64%, 52%)" opacity="0.19"></circle><circle r="7" cx="1238" cy="747" fill="hsl(203, 64%, 52%)" opacity="0.79"></circle><circle r="6" cx="1102" cy="599" fill="hsl(204, 64%, 52%)" opacity="0.95"></circle><circle r="12" cx="199" cy="544" fill="hsl(204, 64%, 52%)" opacity="0.82"></circle><circle r="8.5" cx="1078" cy="231" fill="hsl(204, 64%, 52%)" opacity="0.50"></circle><circle r="9.5" cx="113" cy="182" fill="hsl(205, 64%, 52%)" opacity="0.21"></circle><circle r="6.5" cx="1242" cy="616" fill="hsl(203, 64%, 52%)" opacity="0.17"></circle><circle r="16" cx="96" cy="464" fill="hsl(205, 64%, 52%)" opacity="0.99"></circle><circle r="12.5" cx="989" cy="449" fill="hsl(204, 64%, 52%)" opacity="0.43"></circle><circle r="9.5" cx="635" cy="628" fill="hsl(204, 64%, 52%)" opacity="0.17"></circle><circle r="10" cx="525" cy="118" fill="hsl(204, 64%, 52%)" opacity="0.40"></circle><circle r="8.5" cx="948" cy="278" fill="hsl(204, 64%, 52%)" opacity="0.39"></circle><circle r="6.5" cx="1343" cy="670" fill="hsl(203, 64%, 52%)" opacity="0.51"></circle><circle r="17.5" cx="208" cy="728" fill="hsl(204, 64%, 52%)" opacity="0.56"></circle><circle r="11" cx="61" cy="323" fill="hsl(205, 64%, 52%)" opacity="0.98"></circle><circle r="14" cx="296" cy="245" fill="hsl(204, 64%, 52%)" opacity="0.77"></circle><circle r="7" cx="282" cy="510" fill="hsl(204, 64%, 52%)" opacity="0.19"></circle><circle r="11" cx="1091" cy="694" fill="hsl(204, 64%, 52%)" opacity="0.75"></circle><circle r="12" cx="733" cy="736" fill="hsl(204, 64%, 52%)" opacity="0.41"></circle><circle r="9.5" cx="1387" cy="24" fill="hsl(204, 64%, 52%)" opacity="0.98"></circle><circle r="12" cx="857" cy="127" fill="hsl(205, 64%, 52%)" opacity="0.66"></circle><circle r="13.5" cx="271" cy="160" fill="hsl(204, 64%, 52%)" opacity="0.98"></circle><circle r="9.5" cx="912" cy="193" fill="hsl(204, 64%, 52%)" opacity="0.52"></circle><circle r="15" cx="989" cy="22" fill="hsl(205, 64%, 52%)" opacity="0.62"></circle><circle r="10.5" cx="402" cy="630" fill="hsl(204, 64%, 52%)" opacity="0.83"></circle></svg>